<svg width="246" height="144" viewBox="0 0 246 144" fill="none" xmlns="http://www.w3.org/2000/svg">
<path d="M5.57813 134.035L15.0781 97.5347H21.1281L30.5781 134.035H26.0281L23.6281 124.335H12.5781L10.1781 134.035H5.57813ZM13.4781 120.535H22.6781L19.8781 109.285C19.3448 107.151 18.9281 105.368 18.6281 103.935C18.3281 102.501 18.1448 101.568 18.0781 101.135C18.0115 101.568 17.8281 102.501 17.5281 103.935C17.2281 105.368 16.8115 107.135 16.2781 109.235L13.4781 120.535ZM51.8086 134.035C50.2086 134.035 48.8086 133.718 47.6086 133.085C46.4086 132.451 45.4753 131.551 44.8086 130.385C44.1419 129.218 43.8086 127.851 43.8086 126.285V101.635H34.5586V97.5347H48.3086V126.285C48.3086 127.418 48.6253 128.318 49.2586 128.985C49.8919 129.618 50.7419 129.935 51.8086 129.935H60.5586V134.035H51.8086ZM71.0891 143.035V138.935H79.8391C81.2391 138.935 82.2557 138.618 82.8891 137.985C83.5557 137.351 83.8891 136.368 83.8891 135.035V131.535L83.9891 126.535H83.0891L83.9391 125.785C83.9391 127.785 83.2724 129.368 81.9391 130.535C80.6057 131.701 78.8224 132.285 76.5891 132.285C73.7557 132.285 71.5224 131.368 69.8891 129.535C68.2557 127.668 67.4391 125.168 67.4391 122.035V116.235C67.4391 113.101 68.2557 110.618 69.8891 108.785C71.5224 106.951 73.7557 106.035 76.5891 106.035C78.8224 106.035 80.6057 106.618 81.9391 107.785C83.2724 108.951 83.9391 110.535 83.9391 112.535L83.0891 111.785H83.9391V106.535H88.3891V135.035C88.3891 137.501 87.6224 139.451 86.0891 140.885C84.5891 142.318 82.4891 143.035 79.7891 143.035H71.0891ZM77.9391 128.385C79.8057 128.385 81.2724 127.801 82.3391 126.635C83.4057 125.468 83.9391 123.851 83.9391 121.785V116.535C83.9391 114.468 83.4057 112.851 82.3391 111.685C81.2724 110.518 79.8057 109.935 77.9391 109.935C76.0391 109.935 74.5557 110.501 73.4891 111.635C72.4557 112.768 71.9391 114.401 71.9391 116.535V121.785C71.9391 123.918 72.4557 125.551 73.4891 126.685C74.5557 127.818 76.0391 128.385 77.9391 128.385ZM108.02 134.435C105.82 134.435 103.92 134.018 102.32 133.185C100.72 132.351 99.4695 131.151 98.5695 129.585C97.7029 127.985 97.2695 126.101 97.2695 123.935V116.635C97.2695 114.435 97.7029 112.551 98.5695 110.985C99.4695 109.418 100.72 108.218 102.32 107.385C103.92 106.551 105.82 106.135 108.02 106.135C110.22 106.135 112.12 106.551 113.72 107.385C115.32 108.218 116.553 109.418 117.42 110.985C118.32 112.551 118.77 114.418 118.77 116.585V123.935C118.77 126.101 118.32 127.985 117.42 129.585C116.553 131.151 115.32 132.351 113.72 133.185C112.12 134.018 110.22 134.435 108.02 134.435ZM108.02 130.435C109.986 130.435 111.52 129.885 112.62 128.785C113.72 127.685 114.27 126.068 114.27 123.935V116.635C114.27 114.501 113.72 112.885 112.62 111.785C111.52 110.685 109.986 110.135 108.02 110.135C106.086 110.135 104.553 110.685 103.42 111.785C102.32 112.885 101.77 114.501 101.77 116.635V123.935C101.77 126.068 102.32 127.685 103.42 128.785C104.553 129.885 106.086 130.435 108.02 130.435ZM127.6 134.035V97.5347H138.9C141.067 97.5347 142.967 97.9847 144.6 98.8847C146.233 99.7514 147.5 100.968 148.4 102.535C149.3 104.101 149.75 105.935 149.75 108.035C149.75 110.501 149.1 112.618 147.8 114.385C146.533 116.151 144.8 117.368 142.6 118.035L150.25 134.035H144.95L137.95 118.535H132.1V134.035H127.6ZM132.1 114.485H138.9C140.767 114.485 142.267 113.901 143.4 112.735C144.533 111.535 145.1 109.968 145.1 108.035C145.1 106.068 144.533 104.501 143.4 103.335C142.267 102.168 140.767 101.585 138.9 101.585H132.1V114.485ZM165.58 134.535C162.68 134.535 160.397 133.801 158.73 132.335C157.064 130.835 156.23 128.818 156.23 126.285C156.23 123.718 157.064 121.701 158.73 120.235C160.397 118.768 162.647 118.035 165.48 118.035H173.98V115.285C173.98 113.585 173.464 112.285 172.43 111.385C171.43 110.451 169.997 109.985 168.13 109.985C166.497 109.985 165.13 110.335 164.03 111.035C162.93 111.701 162.297 112.618 162.13 113.785H157.63C157.93 111.418 159.047 109.535 160.98 108.135C162.914 106.735 165.33 106.035 168.23 106.035C171.397 106.035 173.897 106.851 175.73 108.485C177.564 110.118 178.48 112.335 178.48 115.135V134.035H174.08V128.785H173.33L174.08 128.035C174.08 130.035 173.297 131.618 171.73 132.785C170.197 133.951 168.147 134.535 165.58 134.535ZM166.68 130.985C168.814 130.985 170.564 130.451 171.93 129.385C173.297 128.318 173.98 126.951 173.98 125.285V121.385H165.58C164.08 121.385 162.897 121.801 162.03 122.635C161.164 123.468 160.73 124.601 160.73 126.035C160.73 127.568 161.247 128.785 162.28 129.685C163.347 130.551 164.814 130.985 166.68 130.985ZM198.161 134.535C195.961 134.535 194.028 134.118 192.361 133.285C190.728 132.451 189.461 131.251 188.561 129.685C187.661 128.085 187.211 126.201 187.211 124.035V116.535C187.211 114.335 187.661 112.451 188.561 110.885C189.461 109.318 190.728 108.118 192.361 107.285C194.028 106.451 195.961 106.035 198.161 106.035C201.328 106.035 203.878 106.885 205.811 108.585C207.744 110.285 208.761 112.601 208.861 115.535H204.361C204.261 113.768 203.661 112.418 202.561 111.485C201.494 110.518 200.028 110.035 198.161 110.035C196.194 110.035 194.628 110.601 193.461 111.735C192.294 112.835 191.711 114.418 191.711 116.485V124.035C191.711 126.101 192.294 127.701 193.461 128.835C194.628 129.968 196.194 130.535 198.161 130.535C200.028 130.535 201.494 130.051 202.561 129.085C203.661 128.118 204.261 126.768 204.361 125.035H208.861C208.761 127.968 207.744 130.285 205.811 131.985C203.878 133.685 201.328 134.535 198.161 134.535ZM227.941 134.535C225.775 134.535 223.875 134.101 222.241 133.235C220.641 132.368 219.391 131.151 218.491 129.585C217.625 127.985 217.191 126.135 217.191 124.035V116.535C217.191 114.401 217.625 112.551 218.491 110.985C219.391 109.418 220.641 108.201 222.241 107.335C223.875 106.468 225.775 106.035 227.941 106.035C230.108 106.035 231.991 106.468 233.591 107.335C235.225 108.201 236.475 109.418 237.341 110.985C238.241 112.551 238.691 114.401 238.691 116.535V121.385H221.591V124.035C221.591 126.201 222.141 127.868 223.241 129.035C224.341 130.168 225.908 130.735 227.941 130.735C229.675 130.735 231.075 130.435 232.141 129.835C233.208 129.201 233.858 128.268 234.091 127.035H238.591C238.291 129.335 237.158 131.168 235.191 132.535C233.258 133.868 230.841 134.535 227.941 134.535ZM234.291 118.385V116.535C234.291 114.368 233.741 112.701 232.641 111.535C231.575 110.368 230.008 109.785 227.941 109.785C225.908 109.785 224.341 110.368 223.241 111.535C222.141 112.701 221.591 114.368 221.591 116.535V117.985H234.641L234.291 118.385Z" fill="white"/>
<path d="M123.071 8.66507L70.5391 74.7362" stroke="white"/>
<path d="M123.071 8.66507L175.603 74.7362" stroke="white"/>
<path d="M149.608 41.7006L127.945 74.7362" stroke="white"/>
<circle cx="123.071" cy="8.66506" r="8.66506" fill="#05A575"/>
<circle cx="97.0758" cy="41.7006" r="8.66506" fill="#05A575"/>
<circle cx="149.608" cy="41.7006" r="8.66506" fill="#05A575"/>
<circle cx="70.5391" cy="74.7362" r="8.66506" fill="#05A575"/>
<circle cx="127.945" cy="74.7362" r="8.66506" fill="#05A575"/>
<circle cx="175.603" cy="74.7362" r="8.66506" fill="#05A575"/>
</svg>
